<svg xmlns="http://www.w3.org/2000/svg" width="64" height="64" viewBox="0 0 64 64" fill="none">
  <defs>
    <linearGradient id="grad" x1="0" y1="0" x2="1" y2="1">
      <stop offset="0%" stop-color="#0D47A1" />
      <stop offset="50%" stop-color="#1565C0" />
      <stop offset="100%" stop-color="#1E88E5" />
    </linearGradient>
    <filter id="shadow" x="-20%" y="-20%" width="140%" height="140%">
      <feDropShadow dx="0" dy="4" stdDeviation="4" flood-color="rgba(13,71,161,0.25)" />
    </filter>
  </defs>
  <rect x="4" y="4" width="56" height="56" rx="16" fill="url(#grad)" filter="url(#shadow)" />
  <path d="M34 16h-4c-1.1 0-2 .9-2 2v14h-6c-1.1 0-2 .9-2 2v4c0 1.1.9 2 2 2h6v6c0 1.1.9 2 2 2h4c1.1 0 2-.9 2-2v-6h6c1.1 0 2-.9 2-2v-4c0-1.1-.9-2-2-2h-6V18c0-1.1-.9-2-2-2Z" fill="#fff"/>
  <circle cx="46" cy="18" r="6" fill="#FFFFFF" opacity="0.35"/>
  <circle cx="18" cy="46" r="5" fill="#FFFFFF" opacity="0.25"/>
</svg>
